<mxfile host="app.diagrams.net" modified="2023-05-04T07:26:34.836Z" agent="Mozilla/5.0 (Macintosh; Intel Mac OS X 10_15_7) AppleWebKit/605.1.15 (KHTML, like Gecko) Version/16.4 Safari/605.1.15" version="21.2.7" etag="Jh59n2DmCX5lk8h2HrCB" type="github">
  <diagram name="第 1 页" id="oZnAIqmm7pCsX3BkYzVM">
    <mxGraphModel>
      <root>
        <mxCell id="0" />
        <mxCell id="1" parent="0" />
      </root>
    </mxGraphModel>
  </diagram>
</mxfile>
